<svg width="581" height="581" viewBox="0 0 581 581" fill="none" xmlns="http://www.w3.org/2000/svg">
<rect width="581" height="581" fill="url(#paint0_radial_108_225)"/>
<path d="M293.493 336.134C255.022 333.208 214.78 331.176 191.87 287.344C166.795 250.564 181.97 202.156 181.97 202.156C181.97 202.156 128.274 180.976 116.699 202.156C106.375 221.047 142.593 246.403 142.593 246.403C142.593 246.403 79.6589 238.892 70.8802 266.665C60.0857 300.814 152.144 312.978 152.144 312.978C152.144 312.978 107.653 393.038 140.041 423.387C181.97 462.674 267.125 366.735 267.125 366.735C267.125 366.735 275.424 425.147 308.189 453.987C334.273 476.945 375.09 481.795 391.14 462.674C413.864 435.602 381.673 380.795 381.673 380.795C381.673 380.795 486.425 443.477 498.815 401.47C508.275 369.4 442.189 326.624 442.189 326.624C442.189 326.624 503.42 321.552 510.486 295.611C519.779 261.494 432.68 248.057 432.68 248.057C432.68 248.057 422.663 286.286 391.14 308.842C362.335 329.452 311.861 337.531 293.493 336.134Z" fill="#FF7B00"/>
<path d="M313.333 107.46C194.851 92.1597 181.97 202.156 181.97 202.156C181.97 202.156 166.795 250.564 191.87 287.344C214.78 331.176 255.022 333.208 293.493 336.134C311.861 337.531 362.335 329.452 391.14 308.842C422.663 286.286 432.68 248.057 432.68 248.057C432.68 248.057 431.815 122.76 313.333 107.46Z" fill="#FF7B00"/>
<path d="M181.97 202.156C181.97 202.156 194.851 92.1597 313.333 107.46C431.815 122.76 432.68 248.057 432.68 248.057M181.97 202.156C181.97 202.156 166.795 250.564 191.87 287.344C214.78 331.176 255.022 333.208 293.493 336.134C311.861 337.531 362.335 329.452 391.14 308.842C422.663 286.286 432.68 248.057 432.68 248.057M181.97 202.156C181.97 202.156 128.274 180.976 116.699 202.156C106.375 221.047 142.593 246.403 142.593 246.403C142.593 246.403 79.6589 238.892 70.8802 266.665C60.0857 300.814 152.144 312.978 152.144 312.978C152.144 312.978 107.653 393.038 140.041 423.387C181.97 462.674 267.125 366.735 267.125 366.735C267.125 366.735 275.424 425.147 308.189 453.987C334.273 476.945 375.09 481.795 391.14 462.674C413.864 435.602 381.673 380.795 381.673 380.795C381.673 380.795 486.425 443.477 498.815 401.47C508.275 369.4 442.189 326.624 442.189 326.624C442.189 326.624 503.42 321.552 510.486 295.611C519.779 261.494 432.68 248.057 432.68 248.057" stroke="black" stroke-width="5"/>
<path d="M267.919 281.423L290.758 280.65L299.419 282.947" stroke="black" stroke-width="5" stroke-linecap="round"/>
<path d="M335.5 216.25C335.5 259.348 328.448 262.6 319.75 262.6C311.052 262.6 304 257.315 304 216.25C304 175.186 311.052 169.9 319.75 169.9C328.448 169.9 335.5 173.153 335.5 216.25Z" fill="black"/>
<path d="M261.7 218.051C261.7 261.149 254.85 264.401 246.4 264.401C237.95 264.401 231.1 259.116 231.1 218.051C231.1 176.986 237.95 171.701 246.4 171.701C254.85 171.701 261.7 174.954 261.7 218.051Z" fill="black"/>
<ellipse cx="363.399" cy="150.969" rx="13.0375" ry="34.1636" transform="rotate(-51 363.399 150.969)" fill="#FFF3E6" fill-opacity="0.5"/>
<defs>
<radialGradient id="paint0_radial_108_225" cx="0" cy="0" r="1" gradientUnits="userSpaceOnUse" gradientTransform="translate(290.5 290.5) rotate(135) scale(288.5)">
<stop stop-color="#FFAC4D"/>
<stop offset="1" stop-color="#FFAC4D" stop-opacity="0"/>
</radialGradient>
</defs>
</svg>
