<svg width="37" height="48" viewBox="0 0 37 48" fill="none" xmlns="http://www.w3.org/2000/svg">
<path fill-rule="evenodd" clip-rule="evenodd" d="M36.5026 20.9975L36.484 20.7201L36.4628 20.4434L36.4389 20.1674L36.4125 19.8921L36.3834 19.6175L36.3518 19.3438L36.3176 19.0708L36.2809 18.7988L36.2417 18.5276L36.2 18.2574L36.1559 17.9882L36.1094 17.7199L36.0604 17.4527L36.0091 17.1866L35.9555 16.9215L35.8997 16.6575L35.8415 16.3946L35.7811 16.1329L35.7186 15.8723L35.6539 15.6129L35.587 15.3547L35.5181 15.0977L35.4471 14.8419L35.3741 14.5873L35.299 14.334L35.222 14.0819L35.143 13.831L35.0621 13.5814L34.9793 13.3331L34.8946 13.086L34.808 12.8402L34.7196 12.5957L34.6294 12.3525L34.5373 12.1106L34.4434 11.8699L34.3477 11.6306L34.2502 11.3926L34.1509 11.156L34.0498 10.9207L33.9468 10.6867L33.8421 10.4542L33.7356 10.2231L33.6273 9.99335L33.5171 9.76513L33.4051 9.53839L33.2913 9.31319L33.1755 9.08957L33.0579 8.86757L32.9383 8.64721L32.8169 8.42855L32.6935 8.21162L32.5682 7.99648L32.441 7.78315L32.3119 7.57168L32.1808 7.36212L32.0478 7.1545L31.9128 6.94887L31.7759 6.74528L31.6371 6.54376L31.4963 6.34435L31.3537 6.14711L31.2091 5.95206L31.0626 5.75927L30.9142 5.56875L30.764 5.38057L30.6119 5.19475L30.4579 5.01134L30.3021 4.83039L30.1444 4.65193L29.9849 4.47601L29.8237 4.30267L29.6606 4.13194L29.4958 3.96389L29.3293 3.79855L29.161 3.63596L28.991 3.47618L28.8193 3.31923L28.646 3.16519L28.4709 3.01408L28.2943 2.86596L28.1161 2.72088L27.9363 2.5789L27.7549 2.44005L27.5719 2.30441L27.3875 2.172L27.2016 2.0429L27.0142 1.91717L26.8254 1.79485L26.6352 1.67601L26.4436 1.5607L26.2506 1.44899L26.0564 1.34093L25.8609 1.23659L25.6641 1.13603L25.4662 1.03931L25.2671 0.946495L25.0669 0.857651L24.8655 0.772839L24.6632 0.69212L24.4598 0.615562L24.2556 0.543217L24.0504 0.475151L23.8444 0.411427L23.6376 0.352097L23.4301 0.297215L23.2219 0.246838L23.013 0.201012L22.8037 0.15979L22.5938 0.123211L22.3835 0.0913124L22.1729 0.0641365L21.9619 0.0417061L21.7508 0.0240555L21.5395 0.0111961L21.3281 0.00314713L21.1167 -8.39233e-05L20.9053 0.00150299L20.6941 0.00791168L20.4831 0.0191154L20.2723 0.0351067L20.0619 0.0558472L19.8519 0.0813103L19.6424 0.11145L19.4335 0.146217L19.2251 0.185547L19.0174 0.229378L18.8105 0.277645L18.6043 0.330276L18.399 0.387192L18.1946 0.448318L17.9911 0.513573L17.7886 0.58287L17.5872 0.656124L17.3868 0.733246L17.1875 0.814133L16.9893 0.898701L16.7924 0.986843L16.5966 1.07846L16.402 1.17347L16.2087 1.27174L16.0166 1.37318L15.8258 1.4777L15.6362 1.58517L15.4479 1.6955L15.2609 1.80858L15.0751 1.9243L14.8906 2.04257L14.7073 2.16328L14.5253 2.28632L14.3444 2.41159L14.1648 2.53901L13.9863 2.66847L13.8089 2.79988L13.6326 2.93314L13.4574 3.06819L13.2832 3.20492L13.11 3.34327L12.9377 3.48316L12.7663 3.62453L12.5958 3.76733L12.4261 3.9115L12.2572 4.057L12.089 4.2038L11.9214 4.35184L11.7546 4.50113L11.5883 4.65163L11.4226 4.80333L11.2574 4.95623L11.0927 5.11032L10.9284 5.26561L10.7646 5.42211L10.6011 5.57983L10.438 5.7388L10.2752 5.89903L10.1127 6.06057L9.95049 6.22343L9.78855 6.38766L9.62684 6.5533L9.46536 6.7204L9.3041 6.889L9.14305 7.05915L8.9822 7.23091L8.82155 7.40433L8.6611 7.57946L8.50086 7.75636L8.34082 7.93509L8.181 8.11572L8.02141 8.29829L7.86205 8.48288L7.70295 8.66953L7.54412 8.85831L7.38557 9.04928L7.22733 9.2425L7.06941 9.43802L6.91184 9.6359L6.75464 9.83619L6.59783 10.0389L6.44143 10.2442L6.28546 10.4521L6.12994 10.6625L5.9749 10.8756L5.82035 11.0914L5.66631 11.31L5.5128 11.5313L5.35982 11.7555L5.20742 11.9825L5.0556 12.2124L4.9044 12.4453L4.75385 12.6812L4.60399 12.9201L4.45487 13.1622L4.30653 13.4073L4.15902 13.6557L4.01241 13.9073L3.86674 14.1622L3.72209 14.4204L3.57854 14.682L3.43614 14.947L3.295 15.2155L3.15518 15.4874L3.01679 15.7629L2.87991 16.0419L2.74465 16.3246L2.6111 16.6108L2.47937 16.9006L2.34957 17.1941L2.22182 17.4912L2.09622 17.792L1.9729 18.0964L1.85199 18.4045L1.73359 18.7162L1.61785 19.0315L1.50488 19.3504L1.39481 19.6729L1.28778 19.9988L1.18391 20.3283L1.08336 20.6612L0.986259 20.9975L0.892762 21.337L0.803021 21.6798L0.717191 22.0258L0.635428 22.3748L0.557891 22.7267L0.484736 23.0815L0.416121 23.439L0.352202 23.7992L0.293132 24.1618L0.239062 24.5267L0.190138 24.8938L0.146505 25.2629L0.1083 25.6339L0.0756541 26.0065L0.0486949 26.3806L0.0275414 26.756L0.012306 27.1324L0.00309331 27.5098L0 27.8878L0.00311418 28.2664L0.0125152 28.6451L0.0282735 29.0239L0.0504502 29.4026L0.0790968 29.7808L0.114256 30.1583L0.155959 30.535L0.20423 30.9107L0.259081 31.2849L0.320516 31.6577L0.38853 32.0287L0.463108 32.3977L0.544224 32.7644L0.631846 33.1288L0.725932 33.4905L0.826433 33.8494L0.93329 34.2052L1.04644 34.5577L1.1658 34.9068L1.29131 35.2523L1.42287 35.594L1.56039 35.9316L1.70377 36.2651L1.85291 36.5943L2.00771 36.9189L2.16805 37.2389L2.33382 37.5541L2.5049 37.8643L2.68114 38.1695L2.86243 38.4695L3.04861 38.7642L3.23953 39.0535L3.43505 39.3374L3.63501 39.6156L3.83925 39.8883L4.0476 40.1553L4.25991 40.4166L4.476 40.6722L4.69571 40.922L4.91886 41.166L5.14529 41.4043L5.37484 41.6368L5.60733 41.8637L5.84259 42.0848L6.08047 42.3003L6.32081 42.5102L6.56344 42.7145L6.80822 42.9134L7.05499 43.1069L7.3036 43.2951L7.55392 43.4781L7.80582 43.6559L8.05915 43.8287L8.3138 43.9966L8.56964 44.1597L8.82657 44.318L9.08448 44.4718L9.34326 44.621L9.60284 44.7659L9.86312 44.9065L10.124 45.0428L10.3856 45.1751L10.6476 45.3032L10.9101 45.4274L11.173 45.5477L11.4363 45.664L11.7 45.7766L11.964 45.8853L12.2284 45.9902L12.493 46.0913L12.7579 46.1887L13.023 46.2823L13.2884 46.372L13.5541 46.458L13.8199 46.5402L14.086 46.6185L14.3523 46.6928L14.6188 46.7633L14.8855 46.8297L15.1523 46.8922L15.4193 46.9505L15.6864 47.0046L15.9536 47.0545L16.221 47.1002L16.4884 47.1414L16.7558 47.1783L17.0233 47.2106L17.2907 47.2384L17.5581 47.2616L17.8254 47.2801L18.0926 47.2938L18.3596 47.3026L18.6264 47.3066L18.8929 47.3057L19.1591 47.2998L19.4249 47.2888L19.6902 47.2728L19.9551 47.2517L20.2194 47.2254L20.4831 47.194L20.7461 47.1575L21.0083 47.1157L21.2698 47.0688L21.5303 47.0167L21.7899 46.9594L22.0485 46.897L22.3061 46.8295L22.5625 46.757L22.8177 46.6793L23.0716 46.5967L23.3242 46.5091L23.5754 46.4165L23.8252 46.3191L24.0734 46.2168L24.3201 46.1097L24.5652 45.9979L24.8086 45.8814L25.0502 45.7602L25.2901 45.6344L25.5281 45.5041L25.7642 45.3694L25.9984 45.2302L26.2306 45.0867L26.4607 44.9389L26.6888 44.7869L26.9147 44.6307L27.1385 44.4704L27.3601 44.3061L27.5794 44.1379L27.7964 43.9658L28.011 43.7898L28.2233 43.6102L28.4332 43.4268L28.6407 43.2399L28.8457 43.0494L29.0482 42.8555L29.2482 42.6582L29.4457 42.4576L29.6405 42.2538L29.8328 42.0468L30.0224 41.8367L30.2094 41.6236L30.3937 41.4075L30.5753 41.1886L30.7542 40.9668L30.9304 40.7422L31.1038 40.515L31.2744 40.2852L31.4422 40.0528L31.6072 39.8179L31.7694 39.5805L31.9288 39.3409L32.0853 39.0989L32.2389 38.8548L32.3897 38.6085L32.5375 38.3601L32.6826 38.1097L32.8247 37.8574L32.964 37.6032L33.1003 37.3473L33.2338 37.0896L33.3645 36.8303L33.4923 36.5695L33.6172 36.3071L33.7393 36.0434L33.8586 35.7783L33.9751 35.5119L34.0888 35.2443L34.1997 34.9755L34.3079 34.7057L34.4134 34.4349L34.5162 34.1632L34.6163 33.8905L34.7138 33.617L34.8087 33.3428L34.9009 33.0678L34.9906 32.7922L35.0778 32.5159L35.1624 32.239L35.2445 31.9616L35.3241 31.6837L35.4012 31.4053L35.4758 31.1265L35.548 30.8472L35.6176 30.5675L35.6848 30.2875L35.7495 30.007L35.8118 29.7263L35.8715 29.4452L35.9288 29.1638L35.9836 28.8822L36.0359 28.6004L36.0857 28.3183L36.133 28.036L36.1779 27.7536L36.2203 27.4711L36.2602 27.1884L36.2976 26.9057L36.3325 26.6229L36.365 26.34L36.3949 26.0572L36.4224 25.7744L36.4474 25.4916L36.4699 25.2089L36.4899 24.9264L36.5074 24.6439L36.5224 24.3616L36.5348 24.0795L36.5448 23.7976L36.5522 23.5159L36.557 23.2346L36.5593 22.9535L36.559 22.6728L36.5562 22.3924L36.5507 22.1124L36.5426 21.8329L36.5319 21.5539L36.5186 21.2754L36.5026 20.9975Z" fill="white"/>
</svg>
