<svg width="66" height="578" viewBox="0 0 66 578" fill="none" xmlns="http://www.w3.org/2000/svg">
<path d="M30.612 0C30.612 0 44.5836 457.144 52.2429 494.419C59.9022 531.695 64.862 577.25 30.1745 577.25C-4.51304 577.25 4.85041 530.037 8.98112 494.419C13.1118 458.802 30.612 0 30.612 0Z" fill="url(#paint0_linear_37_69)"/>
<path d="M55.1928 229.772L50.0252 525.895C50.0252 525.895 53.8095 581.965 24.7944 575.276C-4.22063 568.587 4.75966 523.474 4.75966 523.474L55.1928 229.772Z" fill="url(#paint1_linear_37_69)"/>
<path d="M1.50212 124.047L7.24239 509.672C7.24239 509.672 1.84985 582.472 30.9708 575.268C60.0918 568.064 52.4416 508.867 52.4416 508.867L1.50212 124.047Z" fill="url(#paint2_linear_37_69)"/>
<path fill-rule="evenodd" clip-rule="evenodd" d="M50.9251 543.017L50.9047 542.713L50.8814 542.409L50.8552 542.106L50.8261 541.804L50.7942 541.503L50.7595 541.202L50.722 540.903L50.6817 540.604L50.6387 540.307L50.593 540.01L50.5445 539.715L50.4935 539.42L50.4398 539.127L50.3835 538.835L50.3246 538.544L50.2633 538.254L50.1995 537.966L50.1332 537.678L50.0646 537.392L49.9935 537.108L49.9202 536.824L49.8445 536.542L49.7666 536.262L49.6864 535.982L49.6041 535.704L49.5196 535.427L49.4329 535.152L49.3441 534.878L49.2532 534.606L49.1602 534.334L49.0652 534.065L48.9682 533.796L48.8691 533.529L48.768 533.264L48.665 533L48.5599 532.737L48.4529 532.476L48.3439 532.216L48.233 531.958L48.12 531.701L48.0051 531.446L47.8882 531.192L47.7693 530.94L47.6484 530.69L47.5255 530.441L47.4005 530.194L47.2735 529.948L47.1444 529.704L47.0132 529.463L46.8799 529.223L46.7445 528.985L46.607 528.748L46.4673 528.514L46.3256 528.282L46.1817 528.052L46.0357 527.824L45.8876 527.599L45.7374 527.375L45.585 527.154L45.4305 526.935L45.2739 526.719L45.1153 526.505L44.9545 526.293L44.7916 526.084L44.6267 525.877L44.4598 525.673L44.2908 525.472L44.1198 525.274L43.9467 525.078L43.7717 524.885L43.5947 524.694L43.4158 524.507L43.2349 524.323L43.0521 524.141L42.8674 523.963L42.6808 523.787L42.4924 523.615L42.3021 523.446L42.1101 523.28L41.9162 523.118L41.7206 522.958L41.5232 522.802L41.3241 522.65L41.1234 522.501L40.9209 522.356L40.7169 522.214L40.5112 522.076L40.304 521.942L40.0952 521.812L39.885 521.685L39.6732 521.562L39.46 521.444L39.2455 521.329L39.0295 521.219L38.8123 521.113L38.5937 521.011L38.374 520.913L38.153 520.82L37.9309 520.732L37.7078 520.648L37.4836 520.568L37.2584 520.494L37.0323 520.424L36.8053 520.358L36.5775 520.298L36.349 520.243L36.1198 520.193L35.89 520.147L35.6597 520.107L35.4289 520.072L35.1977 520.042L34.9662 520.018L34.7345 519.998L34.5025 519.984L34.2705 519.976L34.0385 519.972L33.8065 519.974L33.5747 519.981L33.3431 519.993L33.1118 520.011L32.8809 520.033L32.6504 520.061L32.4205 520.094L32.1911 520.133L31.9625 520.176L31.7345 520.224L31.5074 520.277L31.2811 520.335L31.0558 520.397L30.8314 520.464L30.6081 520.536L30.3859 520.612L30.1648 520.692L29.9448 520.777L29.7261 520.866L29.5086 520.958L29.2925 521.055L29.0776 521.156L28.864 521.26L28.6519 521.368L28.441 521.479L28.2316 521.594L28.0235 521.712L27.8169 521.833L27.6116 521.957L27.4077 522.084L27.2052 522.214L27.0041 522.346L26.8043 522.481L26.6058 522.619L26.4086 522.759L26.2127 522.901L26.018 523.045L25.8245 523.191L25.6322 523.339L25.441 523.49L25.2509 523.641L25.0618 523.795L24.8737 523.95L24.6866 524.107L24.5003 524.265L24.3149 524.425L24.1303 524.586L23.9465 524.748L23.7633 524.912L23.5808 525.077L23.3989 525.244L23.2176 525.412L23.0368 525.581L22.8566 525.751L22.6767 525.923L22.4973 526.096L22.3183 526.271L22.1396 526.446L21.9613 526.624L21.7833 526.802L21.6055 526.983L21.4281 527.165L21.2508 527.348L21.0738 527.533L20.8971 527.72L20.7205 527.908L20.5442 528.099L20.3681 528.291L20.1923 528.485L20.0166 528.681L19.8412 528.879L19.6661 529.08L19.4912 529.282L19.3165 529.487L19.1422 529.694L18.9682 529.904L18.7945 530.116L18.6212 530.331L18.4483 530.548L18.2757 530.768L18.1036 530.99L17.932 531.215L17.7608 531.444L17.5901 531.674L17.4199 531.908L17.2503 532.145L17.0813 532.385L16.9128 532.628L16.7449 532.874L16.5776 533.123L16.411 533.376L16.245 533.631L16.0798 533.89L15.9153 534.152L15.7517 534.418L15.5889 534.687L15.427 534.96L15.266 535.236L15.1062 535.516L14.9474 535.799L14.7899 536.086L14.6336 536.377L14.4787 536.672L14.3252 536.97L14.1733 537.272L14.0231 537.579L13.8746 537.889L13.7281 538.203L13.5835 538.521L13.441 538.843L13.3008 539.169L13.163 539.499L13.0276 539.833L12.8949 540.172L12.765 540.514L12.6379 540.86L12.514 541.21L12.3932 541.564L12.2757 541.921L12.1617 542.283L12.0513 542.648L11.9448 543.017L11.8421 543.39L11.7436 543.766L11.6494 544.146L11.5597 544.529L11.4746 544.915L11.3943 545.305L11.319 545.697L11.2489 546.092L11.184 546.49L11.1247 546.891L11.071 547.294L11.0231 547.699L10.9812 548.106L10.9453 548.515L10.9157 548.926L10.8925 549.338L10.8758 549.751L10.8657 550.165L10.8623 550.58L10.8657 550.995L10.876 551.411L10.8933 551.827L10.9177 552.242L10.9491 552.657L10.9877 553.072L11.0335 553.485L11.0865 553.897L11.1467 554.308L11.2141 554.717L11.2887 555.125L11.3706 555.53L11.4596 555.932L11.5558 556.332L11.659 556.729L11.7693 557.123L11.8866 557.513L12.0108 557.9L12.1418 558.283L12.2796 558.663L12.4239 559.038L12.5749 559.408L12.7322 559.774L12.8959 560.135L13.0658 560.492L13.2418 560.843L13.4237 561.189L13.6115 561.529L13.8049 561.864L14.0039 562.194L14.2082 562.517L14.4178 562.835L14.6324 563.146L14.8518 563.451L15.076 563.751L15.3047 564.044L15.5377 564.331L15.7749 564.611L16.016 564.885L16.2609 565.153L16.5094 565.415L16.7614 565.67L17.0165 565.919L17.2747 566.161L17.5358 566.398L17.7996 566.628L18.0659 566.853L18.3345 567.071L18.6054 567.283L18.8782 567.49L19.153 567.691L19.4294 567.886L19.7075 568.075L19.987 568.26L20.2678 568.439L20.5497 568.612L20.8328 568.781L21.1168 568.945L21.4017 569.104L21.6874 569.258L21.9738 569.408L22.2608 569.553L22.5484 569.694L22.8365 569.83L23.125 569.962L23.414 570.09L23.7034 570.213L23.9932 570.333L24.2833 570.448L24.5737 570.559L24.8645 570.666L25.1555 570.768L25.4468 570.867L25.7383 570.961L26.0301 571.051L26.3222 571.137L26.6144 571.219L26.9069 571.296L27.1996 571.369L27.4924 571.438L27.7854 571.502L28.0786 571.561L28.3719 571.616L28.6653 571.666L28.9588 571.711L29.2523 571.752L29.5459 571.787L29.8394 571.818L30.1329 571.843L30.4263 571.863L30.7195 571.878L31.0126 571.888L31.3053 571.893L31.5978 571.892L31.89 571.885L32.1817 571.873L32.4729 571.855L32.7636 571.832L33.0537 571.803L33.3431 571.769L33.6318 571.729L33.9196 571.683L34.2065 571.632L34.4925 571.574L34.7774 571.511L35.0613 571.443L35.3439 571.369L35.6253 571.289L35.9054 571.204L36.1841 571.113L36.4613 571.017L36.737 570.916L37.0112 570.809L37.2836 570.696L37.5544 570.579L37.8234 570.456L38.0905 570.328L38.3557 570.195L38.619 570.057L38.8802 569.914L39.1393 569.766L39.3964 569.614L39.6512 569.456L39.9038 569.294L40.1541 569.127L40.4021 568.956L40.6477 568.78L40.8908 568.599L41.1315 568.415L41.3697 568.226L41.6053 568.033L41.8383 567.836L42.0687 567.634L42.2964 567.429L42.5214 567.22L42.7436 567.007L42.9631 566.791L43.1798 566.571L43.3937 566.347L43.6047 566.12L43.8128 565.889L44.0181 565.655L44.2204 565.418L44.4197 565.178L44.616 564.934L44.8094 564.688L44.9997 564.439L45.1869 564.186L45.3711 563.931L45.5522 563.673L45.7302 563.413L45.9051 563.15L46.0769 562.884L46.2455 562.616L46.411 562.346L46.5733 562.073L46.7324 561.799L46.8884 561.522L47.0413 561.243L47.191 560.962L47.3375 560.679L47.4809 560.395L47.6211 560.108L47.7582 559.82L47.8922 559.531L48.0232 559.24L48.151 558.947L48.2758 558.654L48.3976 558.359L48.5163 558.063L48.6321 557.765L48.7449 557.467L48.8548 557.168L48.9618 556.868L49.0659 556.567L49.1672 556.265L49.2656 555.963L49.3612 555.659L49.4541 555.355L49.5442 555.051L49.6316 554.746L49.7162 554.44L49.7981 554.134L49.8773 553.828L49.9538 553.521L50.0275 553.213L50.0986 552.906L50.1669 552.598L50.2324 552.289L50.2953 551.98L50.3554 551.671L50.4128 551.362L50.4675 551.052L50.5195 550.743L50.5687 550.433L50.6152 550.122L50.659 549.812L50.7 549.502L50.7384 549.191L50.774 548.881L50.8069 548.571L50.837 548.26L50.8645 547.95L50.8891 547.64L50.9111 547.33L50.9303 547.02L50.9467 546.71L50.9604 546.4L50.9713 546.091L50.9795 545.782L50.9848 545.473L50.9873 545.164L50.987 544.856L50.9839 544.548L50.9779 544.241L50.969 543.934L50.9573 543.628L50.9426 543.322L50.9251 543.017Z" fill="url(#paint3_linear_37_69)" fill-opacity="0.8"/>
<defs>
<linearGradient id="paint0_linear_37_69" x1="31.2191" y1="-2.89616" x2="31.2191" y2="577.153" gradientUnits="userSpaceOnUse">
<stop stop-color="#852100" stop-opacity="0"/>
<stop offset="1" stop-color="#AA6301"/>
</linearGradient>
<linearGradient id="paint1_linear_37_69" x1="42.6609" y1="227.358" x2="24.04" y2="575.511" gradientUnits="userSpaceOnUse">
<stop stop-color="#852100" stop-opacity="0"/>
<stop offset="1" stop-color="#AA6301"/>
</linearGradient>
<linearGradient id="paint2_linear_37_69" x1="23.2079" y1="121.391" x2="31.2994" y2="575.62" gradientUnits="userSpaceOnUse">
<stop stop-color="#852100" stop-opacity="0"/>
<stop offset="1" stop-color="#AA6301"/>
</linearGradient>
<linearGradient id="paint3_linear_37_69" x1="30.9248" y1="571.893" x2="30.9248" y2="519.972" gradientUnits="userSpaceOnUse">
<stop stop-color="#FFDFB3"/>
<stop offset="1" stop-color="#FFBF66"/>
</linearGradient>
</defs>
</svg>
