<svg width="149" height="149" viewBox="0 0 149 149" fill="none" xmlns="http://www.w3.org/2000/svg">
<path d="M141.5 105H144.5V149L141.5 105Z" fill="url(#paint0_linear_3_331)"/>
<path d="M4 105H8L4 149V105Z" fill="url(#paint1_linear_3_331)"/>
<rect x="57" y="39" width="5" height="15" fill="#383838"/>
<rect width="5" height="15" transform="matrix(-1 0 0 1 91 39)" fill="#383838"/>
<path d="M102 66L104 58.5L84 46L77.75 71L91.5 96L102 66Z" fill="#B1B1B1"/>
<path d="M64 46L44 58.5L46 66L56.5 96L70.25 71L64 46Z" fill="#B1B1B1"/>
<path d="M144.5 103L102 66L91.5 96L144.5 106V103Z" fill="#D9D9D9"/>
<path d="M4 103V106L56.5 96L46 66L4 103Z" fill="#D9D9D9"/>
<path fill-rule="evenodd" clip-rule="evenodd" d="M61.5 103.5C59.5474 100.571 56.5 96 56.5 96H91.5C91.5 96 88.4526 100.571 86.5 103.5C76.7369 103.5 71.2631 103.5 61.5 103.5Z" fill="#383838"/>
<path d="M56.5 96H91.5L77.75 71H70.25L56.5 96Z" fill="#006655"/>
<path fill-rule="evenodd" clip-rule="evenodd" d="M64 46L69 1L74 0L79 1L84 46H64Z" fill="#00826C"/>
<path d="M77.75 71L84 46H64L70.25 71H77.75Z" fill="#007A66"/>
<path d="M61.5 103.5C70.25 112.25 74 148 74 148C74 148 77.75 112.25 86.5 103.5H61.5Z" fill="url(#paint2_linear_3_331)"/>
<path d="M102 66L104 58.5L84 46L77.75 71L91.5 96L102 66Z" fill="#B1B1B1"/>
<path d="M64 46L44 58.5L46 66L56.5 96L70.25 71L64 46Z" fill="#B1B1B1"/>
<path d="M144.5 103L102 66L91.5 96L144.5 106V103Z" fill="#D9D9D9"/>
<path d="M4 103V106L56.5 96L46 66L4 103Z" fill="#D9D9D9"/>
<path fill-rule="evenodd" clip-rule="evenodd" d="M61.5 103.5C59.5474 100.571 56.5 96 56.5 96H91.5C91.5 96 88.4526 100.571 86.5 103.5C76.7369 103.5 71.2631 103.5 61.5 103.5Z" fill="#383838"/>
<path d="M56.5 96H91.5L77.75 71H70.25L56.5 96Z" fill="#006655"/>
<path fill-rule="evenodd" clip-rule="evenodd" d="M64 46L69 1L74 0L79 1L84 46H64Z" fill="#00826C"/>
<path d="M77.75 71L84 46H64L70.25 71H77.75Z" fill="#007A66"/>
<path d="M61.5 103.5C70.25 112.25 74 148 74 148C74 148 77.75 112.25 86.5 103.5H61.5Z" fill="url(#paint3_linear_3_331)"/>
<defs>
<linearGradient id="paint0_linear_3_331" x1="143" y1="105" x2="143" y2="149" gradientUnits="userSpaceOnUse">
<stop stop-color="#D9D9D9" stop-opacity="0.7"/>
<stop offset="1" stop-color="#D9D9D9" stop-opacity="0"/>
</linearGradient>
<linearGradient id="paint1_linear_3_331" x1="5.5" y1="105" x2="5.5" y2="149" gradientUnits="userSpaceOnUse">
<stop stop-color="#D9D9D9" stop-opacity="0.7"/>
<stop offset="1" stop-color="#D9D9D9" stop-opacity="0"/>
</linearGradient>
<linearGradient id="paint2_linear_3_331" x1="74.25" y1="103.5" x2="74.25" y2="148" gradientUnits="userSpaceOnUse">
<stop stop-color="#B1B1B1"/>
<stop offset="1" stop-color="#4B4B4B"/>
</linearGradient>
<linearGradient id="paint3_linear_3_331" x1="74.25" y1="103.5" x2="74.25" y2="148" gradientUnits="userSpaceOnUse">
<stop stop-color="#4DF6FF" stop-opacity="0.8"/>
<stop offset="1" stop-color="#2E9499" stop-opacity="0"/>
</linearGradient>
</defs>
</svg>
